<svg width="55" height="55" fill="none" xmlns="http://www.w3.org/2000/svg"><path fill-rule="evenodd" clip-rule="evenodd" d="M9.167 27.5a18.333 18.333 0 1 1 20.625 18.191V32.083h4.583a2.292 2.292 0 1 0 0-4.583h-4.583v-4.583a2.292 2.292 0 0 1 2.291-2.292h1.146a2.291 2.291 0 1 0 0-4.583h-1.146a6.875 6.875 0 0 0-6.875 6.875V27.5h-4.583a2.292 2.292 0 1 0 0 4.583h4.583v13.608A18.335 18.335 0 0 1 9.167 27.5ZM27.5 50.417c12.657 0 22.917-10.26 22.917-22.917 0-12.657-10.26-22.917-22.917-22.917-12.657 0-22.917 10.26-22.917 22.917 0 12.657 10.26 22.917 22.917 22.917Z" fill="#FCFCFC" fill-opacity=".93"/></svg>