<svg width="61" height="61" fill="none" xmlns="http://www.w3.org/2000/svg"><path d="M42.711 21.034a2.745 2.745 0 1 0 0-5.49 2.745 2.745 0 0 0 0 5.49ZM30.5 18.754a11.746 11.746 0 1 0 0 23.492 11.746 11.746 0 0 0 0-23.492Zm0 19.371a7.625 7.625 0 1 1 0-15.25 7.625 7.625 0 0 1 0 15.25Z" fill="#fff"/><path d="M30.5 11.746c6.108 0 6.832.023 9.243.134 1.45.017 2.887.283 4.247.787a7.578 7.578 0 0 1 4.343 4.342c.504 1.36.77 2.797.787 4.248.11 2.411.134 3.135.134 9.245 0 6.11-.023 6.83-.134 9.241a12.664 12.664 0 0 1-.787 4.247 7.578 7.578 0 0 1-4.343 4.343c-1.36.504-2.796.77-4.247.787-2.411.11-3.135.134-9.243.134-6.108 0-6.832-.023-9.243-.134a12.664 12.664 0 0 1-4.248-.787 7.578 7.578 0 0 1-4.342-4.343 12.664 12.664 0 0 1-.787-4.247c-.11-2.411-.134-3.135-.134-9.243 0-6.108.023-6.832.134-9.243.017-1.45.283-2.887.787-4.248a7.578 7.578 0 0 1 4.342-4.342c1.36-.504 2.797-.77 4.248-.787 2.411-.11 3.135-.134 9.243-.134Zm0-4.121c-6.212 0-6.992.027-9.432.137a16.788 16.788 0 0 0-5.551 1.064 11.697 11.697 0 0 0-6.691 6.69 16.788 16.788 0 0 0-1.064 5.554c-.11 2.44-.137 3.216-.137 9.43 0 6.214.027 6.992.137 9.432a16.788 16.788 0 0 0 1.064 5.551 11.697 11.697 0 0 0 6.69 6.691 16.787 16.787 0 0 0 5.554 1.064c2.44.11 3.218.137 9.43.137s6.992-.027 9.432-.137a16.787 16.787 0 0 0 5.553-1.064 11.697 11.697 0 0 0 6.691-6.69 16.785 16.785 0 0 0 1.062-5.554c.11-2.44.137-3.216.137-9.43 0-6.214-.027-6.992-.137-9.432a16.788 16.788 0 0 0-1.064-5.551 11.697 11.697 0 0 0-6.69-6.691 16.788 16.788 0 0 0-5.554-1.062c-2.44-.114-3.216-.139-9.43-.139Z" fill="#fff"/></svg>