<svg width="36" height="34" fill="none" xmlns="http://www.w3.org/2000/svg"><path d="M23.56 20.03c.497-1.902-.965-3.9-3.265-4.46-2.3-.562-4.566.525-5.062 2.427-.496 1.902.966 3.9 3.266 4.461 2.3.562 4.566-.525 5.062-2.428Z" stroke="#BC799D" stroke-linecap="round" stroke-linejoin="round"/><path d="m23.56 20.03 4-15.383c-.663 2.541 4.678 1.296 4.045 3.722" stroke="#BC799D" stroke-linecap="round" stroke-linejoin="round"/><path d="M23.34 12.168a8.264 8.264 0 0 0-5.405-.995 8.11 8.11 0 0 0-4.8 2.604 7.635 7.635 0 0 0-1.945 4.981 7.624 7.624 0 0 0 1.821 5.025 8.094 8.094 0 0 0 4.735 2.714 8.27 8.27 0 0 0 5.429-.87 7.856 7.856 0 0 0 3.579-4.044c.664-1.714.682-3.6.052-5.325" stroke="#BC799D" stroke-linecap="round" stroke-linejoin="round"/><path d="M24.306 8.454a12.27 12.27 0 0 0-8.531-.625c-2.826.822-5.235 2.63-6.762 5.074a11.208 11.208 0 0 0-1.5 8.151c.561 2.803 2.178 5.305 4.537 7.02a12.193 12.193 0 0 0 8.23 2.264c2.938-.258 5.672-1.563 7.673-3.662 2-2.098 3.125-4.841 3.155-7.696.03-2.855-1.037-5.62-2.994-7.756" stroke="#BC799D" stroke-linecap="round" stroke-linejoin="round"/><path d="M19.214 3.63c-4.174 0-8.177 1.605-11.128 4.46-2.951 2.857-4.61 6.73-4.61 10.77" stroke="#BC799D" stroke-linecap="round" stroke-linejoin="round"/></svg>