<svg width="54" height="54" fill="none" xmlns="http://www.w3.org/2000/svg"><path d="M27 45a18 18 0 1 0 0-36 18 18 0 0 0 0 36Zm0 4.5C14.573 49.5 4.5 39.427 4.5 27S14.573 4.5 27 4.5 49.5 14.573 49.5 27 39.427 49.5 27 49.5Z" fill="#FCFCFC"/><path d="M33.577 19.184H20.423c-2.58 0-4.673 2.07-4.673 4.621v6.503c0 2.553 2.093 4.621 4.673 4.621h13.154c2.58 0 4.673-2.07 4.673-4.621v-6.503c0-2.554-2.093-4.621-4.673-4.621Zm-3.16 8.19-6.153 2.902a.248.248 0 0 1-.353-.223v-5.985a.249.249 0 0 1 .238-.245.247.247 0 0 1 .122.027l6.151 3.083a.247.247 0 0 1-.004.44Z" fill="#FCFCFC"/></svg>